<?xml version="1.0" encoding="UTF-8"?> <svg xmlns="http://www.w3.org/2000/svg" xmlns:xlink="http://www.w3.org/1999/xlink" height="500" viewBox="0 0 673 500" width="673"><linearGradient id="a" x1="58.670107%" x2="50%" y1="48.533377%" y2="51.465119%"><stop offset="0" stop-color="#aaaeff"></stop><stop offset="1" stop-color="#c3c4ea"></stop></linearGradient><linearGradient id="b" x1="58.670107%" x2="0%" y1="48.370801%" y2="51.950912%"><stop offset="0" stop-color="#e2e4ff"></stop><stop offset="1" stop-color="#dadbff"></stop></linearGradient><linearGradient id="c" x1="50%" x2="12.533625%" y1="107.834664%" y2="19.181948%"><stop offset="0" stop-color="#adb2e3" stop-opacity=".506938"></stop><stop offset="1" stop-color="#4f77e8"></stop></linearGradient><linearGradient id="d"><stop offset="0" stop-color="#fff" stop-opacity="0"></stop><stop offset="1" stop-color="#d1dbff"></stop></linearGradient><linearGradient id="e" x1="50.509702%" x2="5.162593%" xlink:href="#d" y1="-57.066197%" y2="209.304929%"></linearGradient><linearGradient id="f" x1="57.227737%" x2="24.778959%" xlink:href="#d" y1="-15.993976%" y2="209.304929%"></linearGradient><linearGradient id="g" x1="49.692318%" x2="50.277925%" y1="-12.290749%" y2="92.111734%"><stop offset="0" stop-color="#beaaff"></stop><stop offset="1" stop-color="#b9bbff"></stop></linearGradient><linearGradient id="h"><stop offset="0" stop-color="#9bc989"></stop><stop offset="1" stop-color="#d1f4c5"></stop></linearGradient><linearGradient id="i" x1="50%" x2="64.284106%" xlink:href="#h" y1="55.288352%" y2="45.761657%"></linearGradient><linearGradient id="j"><stop offset="0" stop-color="#467eff"></stop><stop offset="1" stop-color="#5ec7f1"></stop></linearGradient><linearGradient id="k" x1="41.991947%" x2="52.038328%" xlink:href="#j" y1="95.447072%" y2="0%"></linearGradient><linearGradient id="l" x1="50%" x2="50%" y1="0%" y2="100%"><stop offset="0" stop-color="#3c4358"></stop><stop offset="1" stop-color="#252f3b"></stop></linearGradient><linearGradient id="m"><stop offset="0" stop-color="#fff"></stop><stop offset="1" stop-color="#a5b9ff"></stop></linearGradient><linearGradient id="n" x1="44.556032%" x2="55.882817%" xlink:href="#m" y1="10.691971%" y2="105.613793%"></linearGradient><linearGradient id="o" x1="30.116776%" x2="71.486049%" xlink:href="#m" y1="10.691971%" y2="105.613793%"></linearGradient><linearGradient id="p"><stop offset="0" stop-color="#f22a5b"></stop><stop offset="1" stop-color="#ff58d6"></stop></linearGradient><linearGradient id="q" x1="28.711032%" x2="98.537827%" xlink:href="#p" y1="-13.3865%" y2="115.215744%"></linearGradient><linearGradient id="r"><stop offset="0" stop-color="#ff8e44"></stop><stop offset="1" stop-color="#fff1d5"></stop></linearGradient><linearGradient id="s" x1="158.455985%" x2="-73.024317%" xlink:href="#r" y1="47.611721%" y2="40.848132%"></linearGradient><linearGradient id="t"><stop offset="0" stop-color="#f7a26a"></stop><stop offset="1" stop-color="#f5deb2"></stop></linearGradient><linearGradient id="u" x1="74.375194%" x2="15.472164%" xlink:href="#t" y1="88.064338%" y2="9.071753%"></linearGradient><linearGradient id="v" x1="70.943392%" x2="37.269319%" y1="33.774247%" y2="91.463948%"><stop offset="0" stop-color="#fff"></stop><stop offset="1" stop-color="#fff"></stop></linearGradient><linearGradient id="w" x1="145.079326%" x2="-57.850841%" xlink:href="#r" y1="44.632676%" y2="29.432457%"></linearGradient><linearGradient id="x"><stop offset="0" stop-color="#ff6225"></stop><stop offset="1" stop-color="#ffdd5c"></stop></linearGradient><linearGradient id="y" x1="35.442075%" x2="-25.259393%" xlink:href="#x" y1="35.554388%" y2="69.576782%"></linearGradient><linearGradient id="z"><stop offset="0" stop-color="#f6703d"></stop><stop offset="1" stop-color="#ffe37f"></stop></linearGradient><linearGradient id="A" x1="80.377281%" x2="0%" xlink:href="#z" y1="-21.232385%" y2="68.646118%"></linearGradient><linearGradient id="B" x1="80.377281%" x2="0%" xlink:href="#z" y1="4.50384%" y2="61.909285%"></linearGradient><linearGradient id="C" x1="56.897258%" x2="38.647342%" xlink:href="#z" y1="-40.632971%" y2="73.724504%"></linearGradient><linearGradient id="D" x1="64.75371%" x2="-51.668222%" xlink:href="#t" y1="67.683687%" y2="13.276675%"></linearGradient><linearGradient id="E" x1="35.442075%" x2="66.740497%" y1="7.609764%" y2="98.588602%"><stop offset="0" stop-color="#ffc2aa"></stop><stop offset="1" stop-color="#fff4cc"></stop></linearGradient><linearGradient id="F" x1="158.455985%" x2="-73.024317%" xlink:href="#r" y1="45.089909%" y2="31.184568%"></linearGradient><linearGradient id="G" x1="-16.952172%" x2="36.556787%" y1="40.598984%" y2="61.936885%"><stop offset="0" stop-color="#b93153"></stop><stop offset="1" stop-color="#4f77e8"></stop></linearGradient><linearGradient id="H"><stop offset="0" stop-color="#f22a5b"></stop><stop offset="1" stop-color="#5884ff"></stop></linearGradient><linearGradient id="I" x1="-45.007366%" x2="96.245097%" xlink:href="#H" y1="37.457638%" y2="56.123353%"></linearGradient><linearGradient id="J" x1="0%" x2="163.997603%" xlink:href="#p" y1="14.166197%" y2="86.867916%"></linearGradient><linearGradient id="K" x1="60.155307%" x2="13.9734%" y1="87.528349%" y2="67.474573%"><stop offset="0" stop-color="#852e09"></stop><stop offset="1" stop-color="#cc4d18"></stop></linearGradient><linearGradient id="L" x1="41.566473%" x2="6.401606%" xlink:href="#x" y1="6.378416%" y2="109.116239%"></linearGradient><linearGradient id="M" x1="35.442075%" x2="-25.259393%" xlink:href="#x" y1="11.77288%" y2="101.805629%"></linearGradient><linearGradient id="N" x1="118.642613%" x2="-27.863021%" xlink:href="#r" y1="44.632676%" y2="29.432457%"></linearGradient><linearGradient id="O" x1="-45.007366%" x2="96.245097%" xlink:href="#H" y1="35.148906%" y2="57.250507%"></linearGradient><linearGradient id="P" x1="158.455985%" x2="-73.024317%" xlink:href="#r" y1="44.742253%" y2="29.852352%"></linearGradient><linearGradient id="Q" x1="69.489545%" x2="50%" xlink:href="#z" y1="-40.632971%" y2="58.032408%"></linearGradient><linearGradient id="R" x1="54.034894%" x2="50%" xlink:href="#z" y1="-40.632971%" y2="58.032408%"></linearGradient><linearGradient id="S" x1="46.398956%" x2="120.864761%" xlink:href="#m" y1="50%" y2="41.059392%"></linearGradient><linearGradient id="T" x1="42.054821%" x2="52.022324%" xlink:href="#j" y1="95.447072%" y2="0%"></linearGradient><linearGradient id="U" x1="50%" x2="50%" y1="0%" y2="100%"><stop offset="0" stop-color="#6a779e"></stop><stop offset="1" stop-color="#252f3b"></stop></linearGradient><linearGradient id="V" x1="105.623093%" x2="-13.094656%" xlink:href="#r" y1="44.632676%" y2="29.432457%"></linearGradient><linearGradient id="W" x1="35.442075%" x2="-25.259393%" xlink:href="#x" y1="35.964081%" y2="69.021564%"></linearGradient><linearGradient id="X" x1="73.409886%" x2="11.468101%" xlink:href="#z" y1="-40.632971%" y2="73.724504%"></linearGradient><linearGradient id="Y" x1="80.377281%" x2="0%" xlink:href="#z" y1="2.596436%" y2="62.408575%"></linearGradient><linearGradient id="Z" x1="29.034082%" x2="97.801288%" xlink:href="#p" y1="-13.3865%" y2="115.215744%"></linearGradient><linearGradient id="aa" x1="96.427536%" x2="-2.663907%" xlink:href="#r" y1="44.632676%" y2="29.432457%"></linearGradient><linearGradient id="ab" x1="41.480255%" x2="217.65961%" xlink:href="#m" y1="50%" y2="41.059392%"></linearGradient><linearGradient id="ac"><stop offset="0" stop-color="#59a37e"></stop><stop offset="1" stop-color="#8cc9a8"></stop></linearGradient><linearGradient id="ad" x1="71.339298%" x2="40.531403%" xlink:href="#ac" y1="143.886741%" y2="9.794397%"></linearGradient><linearGradient id="ae" x1="50%" x2="52.322701%" xlink:href="#h" y1="93.677298%" y2="14.994885%"></linearGradient><linearGradient id="af" x1="62.355195%" x2="44.517797%" xlink:href="#ac" y1="143.886741%" y2="9.794397%"></linearGradient><linearGradient id="ag" x1="71.570845%" x2="40.428662%" y1="143.886741%" y2="9.794397%"><stop offset="0" stop-color="#256345"></stop><stop offset="1" stop-color="#8cc9a8"></stop></linearGradient><linearGradient id="ah" x1="61.945416%" x2="44.699623%" xlink:href="#ac" y1="143.886741%" y2="9.794397%"></linearGradient><linearGradient id="ai" x1="62.489258%" x2="44.458311%" xlink:href="#ac" y1="143.886741%" y2="9.794397%"></linearGradient><g fill="none" fill-rule="evenodd"><g transform="translate(37 18)"><path d="m250.947194 53.7307523c80.969086 82.9550087 154.746147-42.2738879 268.839717 27.63135 114.262221 70.0085707 61.33938 332.6785477-72.468395 316.9964017-156.51923-18.343909-148.264409-50.079715-217.160104-79.389189-68.895694-29.309475-148.023726 32.105736-201.9253121-22.280958-99.1460611-100.038363 84.8936951-384.1583139 222.7140941-242.9576047z" fill="#dae2ff" opacity=".5"></path><g fill-rule="nonzero"><path d="m22 71.1629844h130.764444c-10.785496-10.7591806-24.378907-15.0628633-40.780233-12.9110481-24.6019892 3.2277227-30.2747581-4.8903393-51.468015-7.9120759-14.1288379-2.0144911-26.9675699 4.9265502-38.516196 20.823124z" fill="url(#a)" opacity=".5"></path><path d="m472.415094 21.1629844h130.764444c-10.785496-10.7591806-24.378907-15.06286334-40.780233-12.91104815-24.601989 3.22772275-30.274758-4.89033923-51.468015-7.91207586-14.128838-2.01449108-26.96757 4.92655026-38.516196 20.82312401z" fill="url(#a)" opacity=".2"></path><path d="m297.766038 54.3709086h171.573279c-6.782716-10.9947174-17.33831-16.4920761-31.666782-16.4920761-21.492708 0-32.334311 12.1429919-41.719033 3.6436149-9.384723-8.499377-23.943785-16.4176315-34.194183-16.4176315-10.250399 0-18.203279 5.212933-25.241691 12.7740166s-12.176557 0-23.031821 1.8590297c-7.236843 1.2393532-12.476766 6.1170353-15.719769 14.6330464z" fill="url(#b)"></path></g><ellipse cx="287.598113" cy="414.229462" fill="#8997c9" fill-opacity=".2" rx="191.99434" ry="7.770538"></ellipse></g><g transform="translate(38 48)"><g transform="translate(381 42)"><path d="m23.9057.000261h206.736673v282.001362h-206.736673z" fill="url(#c)" fill-rule="nonzero"></path><path d="m112.583446 11.333649h112.182691v273.334653h-112.182691z" fill="url(#e)"></path><path d="m112.583446 47.3338227 112.182691 84.0028543v20.000097l-112.182691-84.0028547z" fill="#fff" fill-opacity=".19717"></path><path d="m112.583446 78.0006374 112.182691 84.0028546v48.000232l-112.182691-84.002855z" fill="#fff" fill-opacity=".19717"></path><path d="m24.439903 4.825681h88.143543v286.350589h-88.143543z" fill="url(#f)"></path><path d="m.400755 47.3338227 112.182691 84.0028543v20.000097l-112.182691-84.0028547z" fill="#fff" fill-opacity=".19717"></path><path d="m.400755 122.00085 112.182691 84.002854v20.000097l-112.182691-84.002855z" fill="#fff" fill-opacity=".19717"></path><path d="m7.078296 10.800313h21.635233v270.001304h-21.635233z" fill="url(#g)" fill-rule="nonzero"></path><g fill="#fff"><path d="m89.879806 100.667414h13.355082v58.66695h-13.355082z"></path><path d="m125.938528 100.667414h13.355082v58.66695h-13.355082z"></path></g></g><path d="m590.823504 371c1.102133-18.667526-2.957463-32.453909-12.178789-41.359149-13.831989-13.35786-10.997673-37.946695-26.806129-54.960832s-47.82908-20.074153-63.328822-4.763058-21.021437 23.089165-40.403006 19.20013-46.365274 10.065972-51.233425 26.382909c-4.86815 16.316937-22.313639 38.277311-49.744463 22.584729-27.430824-15.692581-70.570792 4.797426-75.12887 32.915271z" fill="url(#i)"></path><g transform="translate(343 49)"><path d="m28.5288959 155.665557v147.251912h19.4720765c4.445159-25.12112 6.6677385-40.894326 6.6677385-47.319619 0-9.637939 1.6096057-15.936648 1.6096057-29.010894 0-8.716164 1.0274091-19.832003 3.0822272-33.347517 5.1155263 30.857831 8.6119981 48.549019 10.4894154 53.073563 1.8774174 4.524544 6.3946998 23.3927 13.5518474 56.604467h16.6240854c-.9506439-40.262943-2.3806015-62.599671-4.2898731-67.010185-2.8639073-6.615771-2.8639073-10.128526-2.8639073-14.362311 0-2.822524-1.1229609-24.782329-3.3688827-65.879416z" fill="url(#k)" fill-rule="nonzero"></path><path d="m52.92117 170.586286 6.6510207 22.315218c.0657668.93401.1305785 1.861745.1944352 2.783206-.1340164-.806543-.2694719-1.621212-.4060821-2.445271-2.0548181 13.515514-3.0822272 24.631353-3.0822272 33.347517 0 13.074246-1.6096057 19.372955-1.6096057 29.010894 0 4.798856-1.2397862 14.812109-3.7193585 30.03976-5.6430875-17.458365-4.4814195-46.792398-2.0490447-65.652399 2.0116238-15.597608 3.3519113-32.063917 4.0208623-49.398925z" fill="#fff" fill-opacity=".235659" fill-rule="nonzero"></path><path d="m89.5032289 155.665557c.2891349 5.290747.5596585 10.264323.8115709 14.920729-21.7441216-.83231-41.8318411-5.80519-60.2631839-14.919852z" fill="url(#l)"></path><path d="m38.4428498 62.1691711c-5.8966915-.283214-9.9349854 1.1250149-12.1148818 4.2246868-3.2698445 4.649508-17.6113194 43.9733741-17.6113194 53.2036041 0 13.862127 15.2057417 15.814417 17.6113194 8.876421 2.4055778-6.937996 3.5049775-25.639127 4.4968418-33.4367154.6612429-5.1983924 3.2005895-16.1543912 7.61804-32.8679965z" fill="url(#n)"></path><path d="m46.3878825 60.8158926 4.2581039-4.223823c.7798155 2.246778 2.6211265 3.3701671 5.5239332 3.3701671 2.9028066 0 7.2079534-2.5404063 12.9154404-7.6212188l5.2897288 7.6212188-21.7212652 26.9809606z" fill="url(#o)"></path><path d="m36.626471 62.1336053c-4.3285384 8.3347803-6.7602688 18.0187598-7.2951913 29.0519385-.5349225 11.0331782-1.6956904 33.7402412-3.4823036 68.1211862h67.0231355c-1.5699704-16.255877-2.3549556-28.655462-2.3549556-37.198756 0-8.543293 0-28.5347495 0-59.9743687l-18.5815773-5.5415357-18.0530826 23.1769505-6.5953812-20.212732z" fill="url(#q)" fill-rule="nonzero"></path><path d="m34.8082693 139.356358c-1.6561792 7.216659-4.5754839 12.573043-8.7579141 16.06915 1.1724392-22.576667 2.0601906-39.847206 2.6635799-51.813545 6.3966106 13.661657 8.4279707 25.575774 6.0943342 35.744395z" fill="url(#l)" opacity=".2"></path><path d="m90.3147998 67.1908793.2010511.9185854.0013051 53.9985093c0 8.353443.7504846 20.393691 2.2514539 36.120744l.1035017 1.078329h-17.4267899c6.7056936-10.197273 5.8815072-22.765452 2.4824839-44.72674-2.5564492-16.5173669 1.5725489-32.3138429 12.3869942-47.3894277z" fill="url(#l)" opacity=".2"></path><path d="m90.516549 120.163393.000607 1.944581c0 2.564557.0707352 5.476606.2122056 8.736145l-63.4068126.000359c.1951327-3.786804.3781217-7.347091.548967-10.680863zm0-26.7030003v10.6810003l-61.8293302.00019c.2117709-4.1964115.3894625-7.7571415.5330748-10.6821903z" fill="#fff" opacity=".5"></path><path d="m63.611981 108.716699c-8.2337908-5.285266-13.0369298-7.710425-14.409417-7.275475-2.0587307.652424-14.8346117 8.679333-14.3825875 10.03704.3013495.905138 4.6675204-.775936 13.0985128-5.043224-4.2313447 5.988135-5.5582106 9.531642-3.9805976 10.630521 2.3664196 1.648318 8.1649627 4.937169 10.8516369 3.936201 2.6866741-1.000968 5.6722072-2.372482 7.2205004-1.911589.7800651.232208 2.2593667-1.662177 2.470341-5.730706.0454603-.876678-.2440027-2.424267-.868389-4.642768z" fill="url(#s)" fill-rule="nonzero"></path><path d="m17.6513784 96.9381179 15.808598.675075c.8502058.0363064 1.5843328.6066331 1.8297182 1.4214668l6.1725079 20.4966023c.3185093 1.057651-.2806834 2.17325-1.3383344 2.491759-.1870567.056332-.3813574.084953-.5767122.084953h-15.4521527c-.8775446 0-1.6525861-.572049-1.9111874-1.410625l-6.5289531-21.1716774c-.3255027-1.0555197.2662929-2.1750595 1.3218126-2.5005622.218283-.0673144.4464845-.0967372.6747031-.0869915z" fill="#24274b" fill-rule="nonzero"></path><path d="m14.9714586 96.9381179 15.808598.675075c.8502057.0363064 1.5843328.6066331 1.8297182 1.4214668l6.1725078 20.4966023c.3185093 1.057651-.2806834 2.17325-1.3383343 2.491759-.1870567.056332-.3813575.084953-.5767122.084953h-15.4521527c-.8775446 0-1.6525861-.572049-1.9111874-1.410625l-6.5289532-21.1716774c-.3255027-1.0555197.266293-2.1750595 1.3218127-2.5005622.218283-.0673144.4464845-.0967372.6747031-.0869915z" fill="#2e3795" fill-rule="nonzero"></path><path d="m13.6953755 113.213764c-2.2290608-5.975652-2.7476199-9.402557-1.5556773-10.280716 1.1919427-.87816 2.7393553.853324 4.6422377 5.194451 3.4604317-6.270954 5.6303319-9.4064303 6.5097006-9.4064303 1.3190532 0-.7845232 5.9873003.267265 6.6438703s4.5893381 5.457543 4.9699944 7.29787c.4488379 2.169958 1.5557632 5.457802 0 8.041323-1.9732007 3.276723-7.3572258 4.414747-9.745014 2.813655-2.8469543-1.908979-4.5431231-5.343653-5.0885064-10.304023z" fill="url(#u)" fill-rule="nonzero"></path><path d="m61.2390272 118.622228c21.9862211 12.338995 35.1422126 17.715221 39.4679748 16.128677 6.488643-2.379816 8.446556-14.345625 7.467599-21.8875-.978956-7.541876-1.780867-34.1148498-5.482065-40.4854696-2.467466-4.2470799-6.5259256-7.6618566-12.17538-10.2443301-3.1294577 7.4347322-4.6941865 13.6242477-4.6941865 18.5685464 0 4.9442988.8678692 15.6647164 2.6036076 32.1612533l-25.9455159-4.914005c.1692736 2.931928.1692736 5.125178 0 6.57975s-.5832849 2.818931-1.242034 4.093078z" fill="url(#v)"></path><path d="m87.2090379 100.750074c6.1900989 10.121898 8.687978 14.926705 7.4936374 14.414422-1.2767895-.547648-3.3688223-1.314678-6.2760982-2.301091l-.0771396-.734791c-.433838-4.14194-.8118029-7.912015-1.1338947-11.310226z" fill="#2886eb" fill-rule="nonzero" opacity=".1"></path><path d="m28.5288959 302.917469c-11.2452919 6.978343-18.83728184 10.977464-22.77596988 11.997365-3.93868804 1.0199-5.8549361 3.454394-5.74874417 7.303482h48.89612585c0-2.266237 0-4.700731 0-7.303482 0-2.602752-.2997784-6.601873-.8993353-11.997365z" fill="url(#l)"></path><path d="m83.4018066 302.917469c-.5256404 4.673579-.9529877 8.335438-1.2820419 10.985576-.3290542 2.650139-.3290542 5.421896 0 8.315271h29.4453893c-.004188-1.322943-.725296-3.463905-2.163324-6.422886-1.438027-2.958981-4.56334-7.251635-9.375938-12.877961z" fill="url(#l)"></path><path d="m50.6459864 56.5920696v-2.1770085c-2.1191875.0767888-3.7171761-.614559-4.7939657-2.0740432-1.6151844-2.1892263-7.4091709-5.48711-7.4091709-13.174165 0-5.1247034 0-10.895068 0-17.3110939h35.932239v12.7964348l-4.1032753 6.5299174-.7984481 11.7192283c-6.0612532 5.3602172-10.6953832 7.7810673-13.9023902 7.2625504-3.2070069-.518517-4.8486698-1.7091238-4.9249888-3.5718203z" fill="url(#w)" fill-rule="nonzero"></path><ellipse cx="51.368747" cy="33.883575" fill="#1a1d37" fill-rule="nonzero" rx="1" ry="1.335153"></ellipse><ellipse cx="40.868778" cy="33.378831" fill="#1a1d37" fill-rule="nonzero" rx="1" ry="1.335153"></ellipse><path d="m59.3605438 23.5824145c2.0207502 2.1184202 3.2217858 3.8513031 3.6031067 5.1986488.6244633 2.2064561 1.1694081 3.7058501 1.6348345 4.4981822 1.2960967-4.4803158 2.7819558-6.408464 4.4575773-5.7844446 2.5134322.9360291 2.0207424 7.0757841 0 9.5617663-1.3471616 1.6573215-.8419219 3.4161909 1.5157191 5.2766081 3.8339158-3.9306006 5.7508737-7.0557274 5.7508737-9.3753804s0-6.2785137 0-11.8765822l-14.0370211-2.9484454z" fill="url(#l)"></path><g fill-rule="nonzero"><path d="m35.7570099 26.6106167c7.7197421 2.0780725 18.2389522.4931199 31.5576303-4.7548577h9.0080149c0-13.7937005-6.1087704-20.69055075-18.326311-20.69055075-12.2175407 0-18.7353721 5.59623308-19.5534943 16.78869925-9.5103021 3.6930669-10.4055821 6.5786366-2.6858399 8.6567092z" fill="url(#y)"></path><path d="m50.6459864 54.4150611c2.2910928-.3732581 4.3973129-1.0646058 6.3186603-2.0740432 1.9213474-1.0094373 4.4236621-3.0200844 7.5069441-6.0319412-2.7267368 4.6289378-5.4142773 7.5721103-8.0626215 8.8295174-2.6483443 1.2574072-4.5693386 1.741899-5.7629829 1.4534755z" fill="#d1a681"></path><path d="m54.4949405 0c-7.6152388.91369441-11.7056607 4.6786723-12.2712659 11.2949337-.3754366 4.3917323-.5920963 6.9031248-.6499791 7.5341773l10.5960933 1.9240016c.1918102-3.9494162.459753-7.1021425.8038284-9.4581789.7173835-4.9122407 4.7204948-7.98950772 12.009334-9.23180111l-.8215715-1.1162599z" fill="url(#A)"></path><path d="m73.317263 6.14037896-8.8456722 8.95053484 12.6329484-.7609092z" fill="url(#B)"></path><path d="m41.0771885 12.8983539.0648784-4.72890321.5945683-1.38469602-.7180211-.77833858-2.5659939 6.17657141z" fill="url(#C)" transform="matrix(.98162718 .190809 -.190809 .98162718 2.540251 -7.476749)"></path><path d="m45.3435851 33.335593c-1.8915056 2.8418063-2.6499523 4.7698994-2.2753399 5.7842795.3746123 1.01438 1.900806 1.1652018 4.5785808.4524653-1.477561.1137792-2.4222019-.3867625-2.8339226-1.5016251-.4117208-1.1148627-.2348269-2.6932359.5306817-4.7351197z" fill="url(#D)"></path></g><path d="m43.7114104 47.2191883c-.1227629-.7787847 1.1003787-1.8887958 3.0205222-1.8887958 1.9201436 0 3.5696082.7732641 3.6675955 1.3948777.0979874.6216136-2.0632818 1.1580132-3.2513428 1.2457516s-3.314012.0269513-3.4367749-.7518335z" fill="#fff"></path><path d="m49.1160666 30.9718441c1.6606365-1.0535223 3.4125947-1.6955196 6.1732748-1.1585056.181582.0353217.3575203-.0827176.3929693-.2636482.0354489-.1809307-.0830154-.3562379-.2645974-.3915596-2.9166939-.5673621-4.8405196.0953588-6.6614749 1.2505887-.1560624.0990073-.2020257.3053284-.1026619.460831s.3064276.2013011.4624901.1022937z" fill="url(#l)"></path><path d="m37.8849589 30.6512811c1.6606365-1.0535222 2.5868964-1.4758442 5.3475766-.9388302.1815819.0353217.3575203-.0827176.3929692-.2636482s-.0830154-.3562378-.2645974-.3915596c-2.9166939-.5673621-4.0148213-.1243166-5.8357766 1.0309133-.1560624.0990073-.2020257.3053284-.1026619.460831s.3064277.2013011.4624901.1022937z" fill="url(#l)" transform="matrix(-.9961947 -.08715574 -.08715574 .9961947 83.441196 3.643121)"></path></g><g transform="translate(106)"><path d="m84.8661569 0h187.6520871c2.209139 0 4 1.790861 4 4 0 .3743423-.052548.74683144-.156107 1.1065644l-75.708313 262.9893706c-.98648 3.426754-4.121866 5.786871-7.687786 5.786871h-187.65208771c-2.209139 0-4-1.790861-4-4 0-.374342.05254829-.746832.15610676-1.106565l75.70831335-262.98936979c.9864801-3.42675423 4.1218662-5.78687121 7.6877865-5.78687121z" fill="url(#E)" fill-rule="nonzero"></path><g transform="translate(86.384645 26.56014)"><path d="m9.07958756 76.2312934h101.11040444c2.209139 0 4-1.790861 4-4 0-.7501757-.210957-1.4852326-.608782-2.121235l-41.0635726-65.64833307c-1.1715258-1.87291818-3.6395352-2.44150909-5.5124534-1.26998334-.3067735.19188934-.5860912.42451713-.8303093.6915172l-60.04683141 65.64833311c-1.49100379 1.6300928-1.37824979 4.1602416.2518431 5.6512454.73734799.6744331 1.70043038 1.0484557 2.69970117 1.0484557z" fill="#e53956"></path><g fill="#fff" fill-rule="nonzero" transform="matrix(-1 0 0 1 69.426653 27.84124)"><path d="m0 0h9.65440058l7.24080042 28.1386444h-4.8272003z"></path><path d="m17.3386429 39.3941022c2.4762739 0 3.8649194-2.0996834 3.1016264-4.6897741s-3.3894808-4.689774-5.8657547-4.689774c-2.476274 0-3.8649194 2.0996833-3.1016264 4.689774s3.3894808 4.6897741 5.8657547 4.6897741z"></path></g></g><g fill="#fff"><path d="m65.8957917 161.413893h123.5106363c1.10457 0 2 .895431 2 2 0 .175318-.023051.349875-.068562.519182l-6.969846 25.928889c-.234831.873606-1.026821 1.480818-1.931438 1.480818h-123.5106363c-1.1045695 0-2-.89543-2-2 0-.175318.0230519-.349874.0685628-.519182l6.969846-25.928889c.2348305-.873606 1.0268202-1.480818 1.9314372-1.480818z"></path><path d="m54.6323244 210.187543h123.5106366c1.104569 0 2 .895431 2 2 0 .175318-.023052.349875-.068563.519183l-6.969846 25.928889c-.23483.873605-1.02682 1.480817-1.931437 1.480817h-123.5106366c-1.1045695 0-2-.89543-2-2 0-.175317.0230518-.349874.0685628-.519182l6.9698459-25.928889c.2348306-.873605 1.0268202-1.480818 1.9314373-1.480818z"></path></g></g><g transform="translate(145 223)"><g transform="matrix(.92718385 .37460659 -.37460659 .92718385 46.645752 .099046)"><path d="m36.7256232 67.4833892-15.144961 11.7512537-5.5586464-8.4411412 2.7900335-4.483768h-5.9424608l-11.80964265-19.8246224c-.56529938-.9489535-.25428409-2.1764975.69467041-2.7417952.04417187-.0263134.08934199-.0509137.1354097-.0737461 2.50776466-1.2429138 4.38356984-1.5825321 5.62741554-1.0188547 1.26719152.5742571 12.7083204 7.4367976 18.5623885 11.4440837 1.5137379 1.0361992 4.2160235 2.0709511 8.1068568 3.1042555z" fill="url(#l)"></path><path d="m34.1866868 57.1990545 2.5389364 10.2843347-15.144961 11.7512537-1.1996536-1.8190036c4.8475719-4.9055803 7.7944442-12.1636552 8.8406169-21.7742246 1.3534488.518351 3.0090665 1.0381783 4.9650613 1.5576398z" fill="#1b1e3c" fill-opacity=".565833" fill-rule="nonzero"></path><path d="m75.4126018 89.4839801c-2.8893283 2.1786978-6.3539737 3.2680467-10.3939364 3.2680467-6.0599439 0-19.9514282-1.757045-22.9109357 1.060492s-3.498689 5.3909043-1.7493445 6.3217422c1.7493445.930838 20.4706401 12.93456 21.2317704 12.93456s6.1769092-1.265528 7.6124444-1.265528c1.4355351 0-2.5800835 3.473652-1.2900417 4.57743.7313362.625741 2.6485765 1.858546 5.7517208 3.698415.9501225.563304 2.1770041.249753 2.740329-.700357.004744-.008002.0094322-.016036.0140642-.024103l9.4494867-16.456784z" fill="url(#l)"></path><path d="m75.4126018 89.4839801 10.4555572 13.4139139-6.05867 10.550855c-4.1626635-5.925031-6.8909982-13.210479-8.1850039-21.8563451 1.3571537-.5244515 2.6196783-1.2273629 3.7881167-2.1084238z" fill="#1b1e3c" fill-opacity=".565833" fill-rule="nonzero"></path><path d="m141.612615 89.7620911c-25.821702-17.3373123-41.9220331-26.0059684-48.3009944-26.0059684s-25.0534428 1.9713905-56.0234445 5.9141716c-1.6958508-2.021139-2.9300836-3.9870746-3.7026985-5.8978067-.7726148-1.9107321-1.4481206-4.6668884-2.0265176-8.2684687 34.3230904-10.4209503 56.1779208-15.6314254 65.5644911-15.6314254 9.3865699 0 25.8063739 5.2104751 49.2594109 15.6314254z" fill="#6670d5" fill-rule="nonzero"></path><path d="m146.382862 55.5040189-4.770247 34.2580722c-25.821702-17.3373123-41.9220331-26.0059684-48.3009944-26.0059684s-25.0534428 1.9713905-56.0234445 5.9141716l-.3086455-.3749056c9.0655288-12.9174869 39.4654318-12.3841438 51.9913806-13.7917655 8.0550526-.9051982 16.2827318-5.101075 24.6830388-12.5876304 8.713157 2.5682659 19.622862 6.76458 32.728912 12.5880261z" fill="#414baf" fill-rule="nonzero"></path><path d="m211.642031 35.1555078 1.348311-1.3298327c-3.150079-.7059213-5.246847-1.7684349-6.290306-3.1875409-1.565188-2.1286589 4.951298-17.0518759 7.160083-17.7395905 2.208785-.6877147 4.200772-.3214444 5.227087-2.589945 1.026316-2.26850063 7.159539-6.0220052 8.632331-6.0220052 1.472793 0 12.976089 2.12441901 16.9674 7.5669995 3.991312 5.4425804 7.664799 15.9157431 4.857212 20.1605859s-18.953177 6.5877674-21.048528 7.8006397c-1.3969.8085815-2.86649 2.4006603-4.40877 4.7762364l-13.814814 2.349651-4.336661-4.6484329z" fill="url(#F)" fill-rule="nonzero"></path><path d="m227.719537 4.2865935c1.472793 0 12.976089 2.12441901 16.9674 7.5669995 2.53671 3.4590755 4.94504 8.9501741 5.642739 13.5828714-3.336548 2.2530271-6.985341 2.0831261-10.947369-.5080901-7.619634-4.983336-12.580117-11.4071348-14.881449-19.27139629 1.393443-.81384701 2.651565-1.37038451 3.218679-1.37038451z" fill="#d1a681" fill-rule="nonzero"></path><path d="m203.882152 35.1555078h7.759879c-3.03659 2.8169811-3.563282 5.452817-1.580077 7.9075075 1.983206 2.4546905 7.114275 2.4546905 15.393206 0v9.877007l-43.282201 2.5639966z" fill="url(#G)" fill-rule="nonzero"></path><path d="m133.017714 43.5300796c14.321384-.6310679 24.081947-.1983492 29.281687 1.298156 5.199741 1.4965053 8.99797 2.579193 11.394689 3.2480632l26.507219-17.1035479c-1.974242-1.9911133-4.787085-2.98667-8.43853-2.98667-5.477166 0-26.276362-2.7217984-35.072493-1.5865971-5.864087.7568009-16.298414 2.2812233-31.302979 4.5732671z" fill="url(#I)" fill-rule="nonzero"></path><path d="m197.074657 31.9410846c.436696.0805784.804589.193345 1.10368.3383l-24.484247 15.7969142c-2.396719-.6688702-6.194948-1.7515579-11.394689-3.2480632-5.19974-1.4965052-14.960303-1.9292239-29.281687-1.298156l-4.202104-6.916139 7.445416-1.4584328c7.237548 3.1447238 13.543423 4.7170857 18.917625 4.7170857 8.061302 0 31.682444-9.8160993 41.896006-7.9315089z" fill="#775bb9" fill-rule="nonzero"></path><path d="m197.988758 30.0031815 10.27292 4.1740345-16.880116 16.1477539 34.377773-1.8631265 7.163477 12.8150358c-12.671614 11.9855549-24.316299 20.7827208-34.934054 26.3914975-10.617755 5.6087768-21.579836 9.7640717-32.886242 12.4658843-.593858-11.3991935-2.562265-20.3120151-5.905221-26.7384644s-9.85925-13.4148058-19.548882-20.9650696c17.307619-4.6047203 28.850533-8.0564523 34.628742-10.355196s13.682076-6.3228602 23.711603-12.0723495z" fill="url(#J)" fill-rule="nonzero"></path><path d="m230.826608 57.5251594 2.096204 3.7517198c-12.671614 11.9855549-24.316299 20.7827208-34.934054 26.3914975-10.617755 5.6087768-21.579836 9.7640717-32.886242 12.4658843-.593858-11.3991935-2.562265-20.3120151-5.905221-26.7384644-.5242-1.0077143-1.126428-2.0292451-1.806683-3.0645923 16.445719.7191256 28.498431-1.4727417 36.157545-6.5750816 10.569441-7.04147 26.260416-10.8488511 37.278451-6.2309633z" fill="url(#l)" opacity=".4"></path><path d="m174.158197 59.3188287c3.783622 5.8684186 6.851229 13.9139308 7.894345 21.6655442.672331 4.9962303.519891 9.7553074-.55007 14.1210734-3.869349 1.4562634-7.779963 2.7313679-11.733395 3.8257347 5.856288-8.9047358 3.508121-23.7287062-3.47524-34.5599365-3.113051-4.8283592-10.519011-9.3135466-22.271448-13.1122986 5.642448-1.5245521 10.594987-2.9106207 14.857317-4.1586419 7.148778 3.4786686 12.24711 7.516835 15.278491 12.2185247zm17.336292-5.7971621c3.783622 5.8684186 6.851229 13.9139308 7.894345 21.6655442.55315 4.1105786.548018 8.0606295-.06705 11.7631875-.447022.2453634-.890914.484435-1.333026.7179784-3.509554 1.8539047-7.056727 3.5490102-10.64152 5.0853166 5.54753-8.9401179 3.168148-23.5005382-3.717109-34.1796109-2.984622-4.6291652-10.4326-10.4977836-16.309106-14.0538445 2.862316-.9236691 5.181197-1.7385848 6.956132-2.4447069.611149-.2431332 1.246077-.5055678 1.904784-.7873039 7.167956 3.4818026 12.276746 7.5248908 15.31255 12.2334395z" fill="#fff"></path><g fill-rule="nonzero"><path d="m165.102516 98.5231478c-6.337992 4.6611772-12.577876 6.9917652-18.719654 6.9917652-6.141777 0-13.140296-11.8335018-20.995555-35.5005063l-40.013901 35.5005063c-9.3599091-9.045033-13.5867626-14.6746503-12.6805605-16.8888514 1.359303-3.3213017 11.1332115-5.590591 19.8424222-15.230265 8.7092103-9.6396739 29.2948623-36.5685894 36.7065563-38.6807783 7.411694-2.112189 11.173724-.6423925 16.052543 6.359444 3.252546 4.667891 8.235981 16.1729355 14.950305 34.5151333 1.177507 1.5723046 2.125471 4.054263 2.843891 7.445875s1.389738 8.5541711 2.013953 15.4876772z" fill="#6670d5"></path><path d="m160.244672 75.5895956c1.177507 1.5723046 2.125471 4.054263 2.843891 7.445875s1.389738 8.5541711 2.013953 15.4876772c-6.337992 4.6611772-12.577876 6.9917652-18.719654 6.9917652-2.414914 0-4.962282-1.829484-7.642105-5.488452 10.669669-1.5211085 15.408592-15.9584796 14.215986-43.3124878 2.146891 5.1752733 4.57625 11.4678549 7.287929 18.8756224z" fill="#bec6e9"></path><path d="m212.990342 33.8256751c2.115734.9614763 4.164989 1.615291 6.147766 1.9614441s3.899076.3846446 5.748897.1154746c-2.405731.7116514-4.744983 1.1105962-7.017758 1.1968346s-4.612027-.1351848-7.017758-.6642696z" fill="#d1a681"></path><path d="m228.23333 32.2004472.262291 7.6143714c1.892725.174081 5.576731-.0452295 11.052019-.6579316 5.475288-.6127022 9.136502-2.9315154 10.983644-6.9564398l-6.279846-11.645746-9.606707 5.5678568c4.964164.9821365 6.841881 2.5767003 5.633151 4.7836915-1.982959 3.6206359-5.997809 4.0520351-12.044552 1.2941977z" fill="url(#K)"></path><path d="m242.545911 20.5547012c2.655822 5.9476943 1.518551 15.9221485 1.122952 17.7453741 4.612976-.6592883 8.322709-4.1094202 10.518848-7.2032247 2.19614-3.0938044 3.899176-17.6014512-3.656427-24.9523887-5.037069-4.90062499-12.46972-5.70467636-22.297954-2.4121541 7.771173 7.2497994 12.542033 12.8572638 14.312581 16.8223934z" fill="url(#L)"></path><path d="m230.012036 2.84756179c-5.863626-2.95596126-8.795439-3.6105571-8.795439-1.96378753 0 1.19551644 3.571715 8.0494059 10.771999 14.02366664 1.811853 1.5033413 5.837142 3.6637007 12.075866 6.4810782z" fill="url(#M)"></path><path d="m146.382862 67.3882818-.682997 12.0803946c-3.096141-.7338366-5.521849-1.4164596-7.277123-2.0478688-2.282152-.8209382-5.83013-1.4673394-7.681807-2.9351159-5.981927-4.7417188-9.332432-11.5365597-9.332432-14.2722234s1.504074-12.1371695 3.980203-12.1371695c1.115568 0 2.855199 1.9761637 5.352229 5.9227423.569204.8996321 1.601284 2.3267051 3.09624 4.2812188.214259.2802214.547204.4446163.90035.4446163.625648 0 1.132836-.5062831 1.132836-1.130815-1.563767-3.8689795-1.908818-6.2384004-1.035153-7.1082628 1.310499-1.3047935 3.731272 3.1176699 4.813205 4.8203596.410836.6465515.73139 1.7513673.961662 3.3144474.434324 2.9481707 1.951721 5.6296675 4.257021 7.5228684z" fill="url(#N)"></path><path d="m232.922812 60.4068579c5.695067 7.9422448-16.338459 22.6286127-30.449253 27.0194793-9.407195 2.9272445-29.540454.4977836-60.399776-7.2883826-.614891-2.8625706-.614891-5.5848167 0-8.1667383.614891-2.5819217 2.076096-4.6911992 4.383616-6.3278326 27.078657 4.3806611 42.775576 5.4775311 47.090758 3.2906102 6.472772-3.2803814 36.020995-13.2040947 39.374655-8.527136z" fill="url(#O)"></path><path d="m232.922812 60.4068579c5.695067 7.9422448-16.338459 22.6286127-30.449253 27.0194793-1.898841.5908639-4.234698.9634776-7.00757 1.117841 3.820384-7.34867 8.949021-11.7119701 15.3855-13.0911431 10.523446-2.2549055 18.094409-7.5259878 18.40916-16.2662001 1.802491.0625146 3.100149.4362474 3.662163 1.2200229z" fill="#775bb9"></path><path d="m129.365062 27.9860809c-2.727825 0-12.486132 7.0216147-12.486132 8.8378734 0 1.8162588 5.090277 8.0042813 8.788204 8.0042813 3.697928 0 8.228549-7.1992788 8.228549-9.1290792 0-1.9298005-1.802796-7.7130755-4.530621-7.7130755z" fill="url(#P)"></path><path d="m239.328795 3.68150661 3.774769 5.80523268c1.429145.63146731 2.329003.92002471 2.699576.86567221 4.138295-.60697071 6.962965.5830043 8.474011 3.5699251 1.714011 3.3881262 2.134316 7.7499828 1.260913 13.0855699 2.867083-4.0268652 3.74269-8.5380352 2.626821-13.5335101-1.673804-7.49321238-8.216322-9.68503635-11.762263-10.33773575-2.36396-.43513293-4.721903-.25351761-7.073827.54484596z" fill="url(#Q)"></path><path d="m248.981307 34.6518889c1.096929-6.4976405.939439-11.196703-.472469-14.0971877-2.117862-4.3507271-2.611024-5.7942595-1.403457-6.8590432 1.207568-1.0647838 4.11969.6730514 5.921365 3.7660473 1.801674 3.0929959 1.339324 10.3258954 0 13.3449326-.892883 2.0126914-2.241363 3.2944418-4.045439 3.845251z" fill="url(#R)"></path></g></g><path d="m248.155691 101.230331c.117833.141679.328413.161181.470345.043559.141932-.117623.161469-.327828.043636-.469506-2.257014-3.1935212-3.510798-4.7010407-3.761352-4.5225589-.375829.2677227-.178075 3.7842649 0 4.5225589.178076.738294.490491.783195.669393.738294.178901-.044902.287465-.226071.242483-.404654l.45336-2.1707261z" fill="#24274b" fill-rule="nonzero"></path><path d="m245.910866 95.9673534c1.199827.5130638 2.130577.9506883 2.790267 1.3114865.66046.3612196 1.592837.9427034 2.79431 1.743157.153435.1022226.360834.0609286.46324-.0922327.102405-.1531613.061037-.3601909-.092398-.4624135-1.216261-.8103061-2.163375-1.4009809-2.844164-1.7733187-.68156-.3727592-1.630301-.8188427-2.848207-1.3396375-.169567-.0725091-.365913.0059261-.438551.1751901-.072639.1692639.005936.3652597.175503.4377688z" fill="#24274b" fill-rule="nonzero" transform="matrix(.99026807 .1391731 -.1391731 .99026807 15.949912 -33.68887)"></path><path d="m233.01839 99.9983793c2.713917 2.4812047 4.192751 4.0284087 4.436503 4.6416137.365627.919808.496418 2.669084-1.786547 1.816137-1.521976-.568632-3.105675-2.000557-4.751095-4.295776z" fill="#fff"></path></g><g transform="translate(50 56)"><path d="m30.2353612 61.1691711c-5.8641603-.283214-9.8801756 1.1250149-12.0480458 4.2246868-3.2518054 4.649508-17.5141606 35.9624551-17.5141606 45.1926851 0 13.862127 15.6630153 14.683176 19.5897373 8.575734s12.3175425-13.563182 13.3039349-21.3607703c.6575949-5.1983923-.4528937-17.4091709-3.3314658-36.6323356z" fill="url(#S)"></path><path d="m20.3761011 154.665557c3.0758988 51.163309 3.7443811 79.388935 2.0054467 84.676876s-2.4074166 26.146286-2.0054467 62.575036h19.3646521c5.3223166-36.238481 7.9834748-57.570367 7.9834748-63.99566 0-6.425292 1.1044759-21.652749 3.3134277-45.68237 8.3700181 25.801328 12.5550271 44.172706 12.5550271 55.114135 0 10.941428 3.7845346 29.129393 11.3536039 54.563895h16.5323727l-2.302252-69.898179-8.162359-77.353733z" fill="url(#T)" fill-rule="nonzero"></path><path d="m81.0140484 154.665557 1.4141642 13.408313c-24.3566908-1.188826-43.2484245-5.658131-56.6752011-13.407916z" fill="url(#l)"></path><path d="m47.6254949 240.607056c-8.0038846-38.238157-3.2107801-70.772688-3.2107801-66.607091 0 2.788632 2.207647 8.868457 6.6229409 18.239474-2.2089518 24.029621-3.3134277 39.257078-3.3134277 45.68237 0 .706783-.0322 1.593935-.0966 2.661456z" fill="#fff" fill-opacity=".235659" fill-rule="nonzero"></path><path d="m102.317733 301.917469c-11.1832535 6.978343-18.7333597 10.977464-22.6503186 11.997365-3.9169589 1.0199-5.8226353 3.454394-5.7170292 7.303482h46.6387958c0-2.266237 0-4.700731 0-7.303482 0-2.602752-.298124-6.601873-.894373-11.997365z" fill="url(#U)" transform="matrix(-1 0 0 1 194.535408 0)"></path><path d="m21.6435837 301.917469c-.5227406 4.673579-.9477302 8.335438-1.2749691 10.985576-.3272388 2.650139-.3272388 5.421896 0 8.315271h29.2829437c-.004165-1.322943-.7212947-3.463905-2.151389-6.422886s-4.5381652-7.251635-9.3242129-12.877961z" fill="url(#U)"></path><g fill-rule="nonzero"><path d="m40.9997615 59.0061597c2.1407051-6.5362584 2.8886995-11.3862515 2.2439829-14.5499793-.9670748-4.7455916-10.8329583-28.6006328.9455677-34.54739507 11.778526-5.94676223 28.4246035-.75712349 28.4246035 6.28602667 0 7.0431501-1.1342553 11.1660421 1.1760837 14.4921188 2.310339 3.3260766 2.9363312 3.8383049.8801237 8.8037773-2.0562074 4.9654723-4.4064896 13.5275844-6.8088716 13.5275844-1.6015881 0-3.7893024-.262938-6.563143-.7888142v7.3881735z" fill="url(#V)"></path><ellipse cx="71.292365" cy="27.038218" fill="#1a1d37" rx="1" ry="1.335153"></ellipse><path d="m41.3095948 45.0605182c.7662306 4.2179614 5.2844921 4.6630124 13.5547846 1.3351532 2.3757956-.9559895 3.8807768-3.457094 4.5149435-7.5033134-4.6781413-.9535627-6.7416892-3.4954043-6.1906438-7.6255248.8265682-6.1951808 6.1362243-4.3824329 7.250417-2.8934623.7427952.9926471 1.8954569.9926471 3.4579851 0-.884921-3.2752791-.884921-5.7432536 0-7.4039236.8849211-1.6606699 3.1654516-3.4724089 6.8415917-5.435217v-3.3053499l-23.4670099-7.22645742-12.151034 11.92736812z" fill="#1a1d37"></path><path d="m35.120629 27.0382177c6.195792 1.5675308 12.2564833 1.5675308 18.182074 0 5.9387665-1.5710163 5.9387665-4.187744 10.3070448-5.4816044 3.3187934-.9830087 8.2074781-1.9895632 14.6660541-3.0196636 2.9880121-3.5963508 2.9880121-5.3945262 0-5.3945262s-5.2259962-.284261-6.7139525-.852783c-4.7564397-7.78764511-10.8428219-11.32742313-18.2591464-10.61933405-16.8490219 1.60869556-22.9097133 10.06466595-18.182074 25.36791125z" fill="url(#W)"></path><path d="m45.7016008 1.13469199c-3.7474776 2.17449193-6.1622889 5.73556564-7.2444339 10.68322111-.9423232 4.3083787-1.0640789 8.3150437-.3652672 12.0199952.1782442.9449486 1.0037335 1.6292931 1.9653461 1.6292931h5.0152453c1.0571161-.000014 1.9316734-.8226826 1.9962507-1.8778244.307279-5.0206927.8720556-8.8059514 1.6943299-11.3557763.9462896-2.93438932 2.3830451-5.76326615 6.7442898-10.18204901.2398081-.24297194 1.7219446-.16235019 4.4464093.24186524l-3.9127471-2.23825807z" fill="url(#X)"></path><path d="m66.0785324 3.69721684c-1.7464096 2.9800211-3.1745544 5.12387601-4.2844345 6.43156466-1.1098801 1.3076887-2.6457854 2.8973694-4.607716 4.7690421 4.3371851-.3080936 7.4957425-.6956299 9.4756723-1.1626089 1.9799297-.4669791 3.9838466-1.3453319 6.0117507-2.6350585z" fill="url(#Y)"></path><path d="m28.4290031 61.1336053c-4.3046585 8.3347803-6.7229734 18.0187598-7.2549449 29.0519385-.5319714 11.0331782-1.6863355 33.7402412-3.4630922 68.1211862h66.6533795c-1.5613091-16.255877-2.3419637-28.655462-2.3419637-37.198756 0-8.543293 0-28.5347495 0-59.9743687l-23.809336-5.5415357c-6.4857518-.3145166-11.2515769-.2876093-14.2974756.0807218-3.0458987.368331-8.2080877 2.1886023-15.4865671 5.4608139z" fill="url(#Z)"></path></g><path d="m82.0216879 67.0927657.0006939 54.0152083c0 8.543294.7806546 20.942879 2.3419637 37.198756l-6.2300834.001233c-9.5946365-11.937154-11.9301103-27.975187-7.3955892-40.479326 3.8003142-10.479531 7.5613192-27.3914885 11.283015-50.7358713z" fill="url(#l)" opacity=".3"></path><path d="m82.0216261 119.163244.0007557 1.94473c0 2.564389.0703358 5.476224.2110073 8.735505l-63.0569856.001115c.1940844-3.787354.3760886-7.348126.5460126-10.682317z" fill="#fff" opacity=".4"></path><path d="m82.0222378 92.4606539v10.6812261l-61.4887263.00048c.2105892-4.1961386.3872927-7.756702.5301106-10.6817061z" fill="#fff" opacity=".4"></path><path d="m114.788396 81.7936701c.34701-3.75073.828411-6.4064444 1.444203-7.9671432.923689-2.3410481 13.042101-19.8126945 14.779013-18.7500915 1.157942.708402.012178 4.4761291-3.437289 11.3031812 5.691895 3.2589205 8.537843 6.0840264 8.537843 8.4753178 0 3.586937-7.005957 9.1510176-8.537843 10.3870014-1.021258.8239893-2.454 1.6171148-4.298224 2.3793766z" fill="url(#aa)" fill-rule="nonzero"></path><path d="m82.0223818 61.1336053c-4.9765948-3.3693145-12.2073067 8.1486223-12.2073067 18.0365589 0 9.5540364 14.3090311 34.6206858 14.5492704 34.9706478 7.1143139 10.363591 9.0354595 13.090224 15.7449155 13.090224 4.47297 0 12.720837-13.471502 24.743601-40.4145074-1.956798-2.6011835-3.540026-4.277925-4.749683-5.0302246s-3.128048-1.2532539-5.755171-1.502863l-17.0140393 17.5178975c-6.8899947-22.1989459-11.993857-34.4215236-15.3115869-36.6677332z" fill="url(#ab)"></path><path d="m105.504563 89.3907108c-2.789755 17.2704382-4.56905 24.1991722-5.337885 20.7862022-.8290578-3.680309-1.7732943-7.805445-2.8327093-12.3754063z" fill="#2886eb" fill-rule="nonzero" opacity=".3"></path><path d="m55.6410623 50.7143531 5.6570461 1.5151252v3.594052z" fill="#d1a681" fill-rule="nonzero"></path><path d="m73.6076836 42.2566917c-1.7694102-.8287153-2.9244508-.4817395-3.4651217 1.0409275s.2150233 2.3126373 2.2670825 2.3699111z" fill="#fff"></path><path d="m69.8917619 25.5681832c1.0309024-1.3570326 1.9490358-1.95633 2.735526-1.856845.1825403.02309.3492002-.1064572.3722455-.2893516.0230452-.1828944-.106251-.3498777-.2887913-.3729677-1.0792261-.1365139-2.1893204.5880831-3.3491568 2.1148384-.1114353.1466883-.0830874.3561141.0633168.4677657.1464042.1116515.3554245.0832485.4668598-.0634398z" fill="#1a1d37" fill-rule="nonzero"></path></g><g transform="translate(0 288)"><path d="m21.2229677 91.0182147c1.2550156-12.5687641 5.8531762-21.7803951 13.7944817-27.6348929 7.9413055-5.8544979 12.4501568-13.6140083 13.5265539-23.2785314 1.141052 14.6899297-1.3625338 26.622546-7.5107576 35.7978487s-12.7516498 14.2138279-19.810278 15.1155756z" fill="url(#ad)"></path><path d="m13.5871538 81.8309091-8.97301537-73.5313933 19.37204877 73.5313933z" fill="#5ba47c"></path><g transform="translate(13.587154)"><path d="m7.55921855 90.6305646c-2.50145799-3.8540133-9.05674036-13.9889724-7.24784958-32.5717977 1.80889079-18.5828253 15.27500413-43.7251615 36.23504963-58.0587669-20.0386754 26.5404738-5.6444392 62.636961-28.98720005 90.6305646z" fill="url(#ae)"></path><path d="m22.3853136 17.5282394c-9.9470875 20.5951911-14.92034064 43.2839398-14.92034064 68.0620723 0 .1993433.16034366.3609431.35813758.3609431.19779393 0 .35813758-.1615998.35813758-.3609431 0-24.6708084 4.94955868-47.2514592 14.84809478-67.7461259.086568-.179237.0125744-.3952642-.1652693-.4825104-.1778438-.0872462-.3921919-.012673-.47876.166564z" fill="#fff" fill-rule="nonzero"></path></g><g transform="translate(0 38.767964)"><path d="m22.5045136 54.6834319c.6829065-22.2069205-6.818598-40.4347312-22.5045136-54.6834319 0 26.8886458 7.50150453 45.1164564 22.5045136 54.6834319z" fill="url(#af)"></path><path d="m4.23830311 10.6962144c8.71585029 16.2944892 14.12600979 30.5447465 16.23280829 42.746517.0339097.196392.2193686.3278946.4142341.2937193.1948655-.0341754.325346-.2210872.2914363-.4174792-2.1215631-12.2872817-7.5583343-26.6076337-16.30798348-42.9653107-.09385831-.1754703-.31108666-.2410339-.48519311-.1464404-.17410644.0945936-.23916041.3135237-.1453021.488994z" fill="#fff" fill-rule="nonzero"></path></g></g><g transform="translate(465 288)"><path d="m49.2543114 90.8534013c1.2595214-12.5460049 5.8741901-21.7409557 13.8440063-27.5848524 7.9698161-5.8438967 12.494855-13.5893564 13.5751165-23.2363792 1.1451486 14.6633296-1.3674256 26.5743385-7.5377225 35.7330269-6.1702969 9.1586883-12.7974304 14.1880899-19.8814003 15.0882047z" fill="url(#ag)"></path><path d="m23.9615569 90.8534013c1.2595214-12.5460049 5.8741901-21.7409557 13.8440062-27.5848524 7.9698162-5.8438967 12.494855-13.5893564 13.5751166-23.2363792 1.1451486 14.6633296-1.3674256 26.5743385-7.5377225 35.7330269-6.170297 9.1586883-12.7974304 14.1880899-19.8814003 15.0882047z" fill="url(#ag)" transform="matrix(-1 0 0 1 75.611126 0)"></path><path d="m41.5910837 81.6827318-9.00523-73.39824454 19.4415977 73.39824454z" fill="#5ba47c"></path><g transform="translate(41.591084)"><path d="m7.58635742 90.4664531c-2.51043865-3.8470346-9.08925559-13.9636415-7.27387058-32.5128175s15.32984406-43.6459851 36.36513956-57.9536356c-20.1106177 26.492415-5.6647036 62.5235396-29.09126898 90.4664531z" fill="url(#ah)"></path><path d="m22.4656806 17.4964997c-9.9827992 20.5578979-14.97390713 43.2055623-14.97390713 67.9388272 0 .1989825.16091932.3602896.35942336.3602896s.35942335-.1613071.35942335-.3602896c0-24.6261351 4.96732842-47.1658974 14.90140192-67.6234529.0868788-.1789124.0126196-.3945485-.1658627-.4816367-.1784822-.0870882-.3935999-.01265-.4804788.1662624z" fill="#fff" fill-rule="nonzero"></path></g><g transform="matrix(.78801075 -.61566148 .61566148 .78801075 .857016 61.441707)"><path d="m22.5853086 54.5844126c.6853583-22.1667089-6.8430779-40.3615131-22.5853086-54.5844126 0 26.8399565 7.5284362 45.0347607 22.5853086 54.5844126z" fill="url(#ai)"></path><path d="m4.25351933 10.676846c8.74714167 16.2649836 14.17672447 30.4894368 16.29108677 42.6691126.0340314.1960365.2201562.3273009.4157213.2931875.1955652-.0341135.3265141-.2206868.2924826-.4167232-2.1291799-12.2650322-7.58547-26.5594533-16.36653188-42.8875102-.09419527-.1751526-.31220351-.2405975-.48693503-.1461752-.17473151.0944223-.24001904.3129559-.14582376.4881085z" fill="#fff" fill-rule="nonzero"></path></g></g></g></g></svg> 